<svg width="4300" height="245" viewBox="0 0 4300 245" fill="none" xmlns="http://www.w3.org/2000/svg">
<path fill-rule="evenodd" clip-rule="evenodd" d="M0 48.6669L14.9306 69.0392C29.8611 89.4116 62.7083 130.156 92.5694 146.567C125.417 162.978 155.278 155.056 188.125 150.529C217.986 146.567 247.847 146.567 280.694 162.978C310.556 179.389 343.403 211.646 373.264 203.723C406.111 195.8 435.972 146.567 468.819 114.311C498.681 81.489 528.542 65.0779 561.389 81.489C591.25 97.9 624.097 146.567 653.958 166.94C686.806 187.312 716.667 179.389 746.528 155.056C779.375 130.156 809.236 89.4116 842.083 97.9C871.944 105.823 904.792 162.978 934.653 170.901C964.514 179.389 997.361 138.645 1027.22 122.234C1060.07 105.823 1089.93 114.311 1122.78 122.234C1152.64 130.156 1185.49 138.645 1215.35 130.156C1245.21 122.234 1278.06 97.9 1307.92 89.4116C1340.76 81.489 1370.62 89.4116 1403.47 97.9C1433.33 105.823 1463.19 114.311 1496.04 118.272C1525.9 122.234 1558.75 122.234 1588.61 130.156C1621.46 138.645 1651.32 155.056 1681.18 146.567C1714.03 138.645 1743.89 105.823 1776.74 97.9C1806.6 89.4116 1839.44 105.823 1869.31 118.272C1902.15 130.156 1932.01 138.645 1961.88 130.156C1994.72 122.234 2024.58 97.9 2057.43 97.9C2087.29 97.9 2120.14 122.234 2150 126.195C2179.86 130.156 2212.71 114.311 2242.57 114.311C2275.42 114.311 2305.28 130.156 2338.12 150.529C2367.99 170.901 2397.85 195.8 2430.69 187.312C2460.56 179.389 2493.4 138.645 2523.26 142.606C2556.11 146.567 2585.97 195.8 2618.82 203.723C2648.68 211.646 2678.54 179.389 2711.39 159.017C2741.25 138.645 2774.1 130.156 2803.96 134.683C2836.81 138.645 2866.67 155.056 2896.53 138.645C2929.38 122.234 2959.24 73.5664 2992.08 69.0392C3021.94 65.0779 3054.79 105.823 3084.65 122.234C3114.51 138.645 3147.36 130.156 3177.22 130.156C3210.07 130.156 3239.93 138.645 3272.78 155.056C3302.64 170.901 3335.49 195.8 3365.35 187.312C3395.21 179.389 3428.06 138.645 3457.92 126.195C3490.76 114.311 3520.62 130.156 3553.47 130.156C3583.33 130.156 3613.19 114.311 3646.04 93.9388C3675.9 73.5664 3708.75 48.6669 3738.61 36.783C3771.46 24.3332 3801.32 24.3332 3831.18 57.1553C3864.03 89.4116 3893.89 155.056 3926.74 155.056C3956.6 155.056 3989.44 89.4116 4019.31 61.1166C4052.15 32.8217 4082.01 40.7443 4111.88 65.0779C4144.72 89.4115 4174.58 130.156 4207.43 162.978C4237.29 195.8 4270.14 220.134 4285.07 232.018L4300 244.468V-0.000411987H4285.07C4270.14 -0.000411987 4237.29 -0.000411987 4207.43 -0.000411987C4174.58 -0.000411987 4144.72 -0.000411987 4111.88 -0.000411987C4082.01 -0.000411987 4052.15 -0.000411987 4019.31 -0.000411987C3989.44 -0.000411987 3956.6 -0.000411987 3926.74 -0.000411987C3893.89 -0.000411987 3864.03 -0.000411987 3831.18 -0.000411987C3801.32 -0.000411987 3771.46 -0.000411987 3738.61 -0.000411987C3708.75 -0.000411987 3675.9 -0.000411987 3646.04 -0.000411987C3613.19 -0.000411987 3583.33 -0.000411987 3553.47 -0.000411987C3520.62 -0.000411987 3490.76 -0.000411987 3457.92 -0.000411987C3428.06 -0.000411987 3395.21 -0.000411987 3365.35 -0.000411987C3335.49 -0.000411987 3302.64 -0.000411987 3272.78 -0.000411987C3239.93 -0.000411987 3210.07 -0.000411987 3177.22 -0.000411987C3147.36 -0.000411987 3114.51 -0.000411987 3084.65 -0.000411987C3054.79 -0.000411987 3021.94 -0.000411987 2992.08 -0.000411987C2959.24 -0.000411987 2929.38 -0.000411987 2896.53 -0.000411987C2866.67 -0.000411987 2836.81 -0.000411987 2803.96 -0.000411987C2774.1 -0.000411987 2741.25 -0.000411987 2711.39 -0.000411987C2678.54 -0.000411987 2648.68 -0.000411987 2618.82 -0.000411987C2585.97 -0.000411987 2556.11 -0.000411987 2523.26 -0.000411987C2493.4 -0.000411987 2460.56 -0.000411987 2430.69 -0.000411987C2397.85 -0.000411987 2367.99 -0.000411987 2338.12 -0.000411987C2305.28 -0.000411987 2275.42 -0.000411987 2242.57 -0.000411987C2212.71 -0.000411987 2179.86 -0.000411987 2150 -0.000411987C2120.14 -0.000411987 2087.29 -0.000411987 2057.43 -0.000411987C2024.58 -0.000411987 1994.72 -0.000411987 1961.88 -0.000411987C1932.01 -0.000411987 1902.15 -0.000411987 1869.31 -0.000411987C1839.44 -0.000411987 1806.6 -0.000411987 1776.74 -0.000411987C1743.89 -0.000411987 1714.03 -0.000411987 1681.18 -0.000411987C1651.32 -0.000411987 1621.46 -0.000411987 1588.61 -0.000411987C1558.75 -0.000411987 1525.9 -0.000411987 1496.04 -0.000411987C1463.19 -0.000411987 1433.33 -0.000411987 1403.47 -0.000411987C1370.62 -0.000411987 1340.76 -0.000411987 1307.92 -0.000411987C1278.06 -0.000411987 1245.21 -0.000411987 1215.35 -0.000411987C1185.49 -0.000411987 1152.64 -0.000411987 1122.78 -0.000411987C1089.93 -0.000411987 1060.07 -0.000411987 1027.22 -0.000411987C997.361 -0.000411987 964.514 -0.000411987 934.653 -0.000411987C904.792 -0.000411987 871.944 -0.000411987 842.083 -0.000411987C809.236 -0.000411987 779.375 -0.000411987 746.528 -0.000411987C716.667 -0.000411987 686.806 -0.000411987 653.958 -0.000411987C624.097 -0.000411987 591.25 -0.000411987 561.389 -0.000411987C528.542 -0.000411987 498.681 -0.000411987 468.819 -0.000411987C435.972 -0.000411987 406.111 -0.000411987 373.264 -0.000411987C343.403 -0.000411987 310.556 -0.000411987 280.694 -0.000411987C247.847 -0.000411987 217.986 -0.000411987 188.125 -0.000411987C155.278 -0.000411987 125.417 -0.000411987 92.5694 -0.000411987C62.7083 -0.000411987 29.8611 -0.000411987 14.9306 -0.000411987H0V48.6669Z" fill="#1A1A1C"/>
</svg>
