<svg width="2500" height="127" viewBox="0 0 2500 127" fill="none" xmlns="http://www.w3.org/2000/svg">
<path fill-rule="evenodd" clip-rule="evenodd" d="M2500 101.718L2491.32 91.1343C2482.64 80.5509 2463.54 59.3843 2446.18 50.8588C2427.08 42.3333 2409.72 46.4491 2390.62 48.8009C2373.26 50.8588 2355.9 50.8588 2336.81 42.3333C2319.44 33.8079 2300.35 17.0509 2282.99 21.1667C2263.89 25.2824 2246.53 50.8588 2227.43 67.6157C2210.07 84.6667 2192.71 93.1921 2173.61 84.6667C2156.25 76.1412 2137.15 50.8588 2119.79 40.2755C2100.69 29.6921 2083.33 33.8079 2065.97 46.4491C2046.88 59.3843 2029.51 80.5509 2010.42 76.1412C1993.06 72.0255 1973.96 42.3333 1956.6 38.2176C1939.24 33.8079 1920.14 54.9745 1902.78 63.5C1883.68 72.0255 1866.32 67.6157 1847.22 63.5C1829.86 59.3843 1810.76 54.9745 1793.4 59.3843C1776.04 63.5 1756.94 76.1412 1739.58 80.5509C1720.49 84.6667 1703.12 80.5509 1684.03 76.1412C1666.67 72.0255 1649.31 67.6157 1630.21 65.5579C1612.85 63.5 1593.75 63.5 1576.39 59.3843C1557.29 54.9745 1539.93 46.4491 1522.57 50.8588C1503.47 54.9745 1486.11 72.0255 1467.01 76.1412C1449.65 80.5509 1430.56 72.0255 1413.19 65.5579C1394.1 59.3843 1376.74 54.9745 1359.38 59.3843C1340.28 63.5 1322.92 76.1412 1303.82 76.1412C1286.46 76.1412 1267.36 63.5 1250 61.4421C1232.64 59.3843 1213.54 67.6157 1196.18 67.6157C1177.08 67.6157 1159.72 59.3843 1140.62 48.8009C1123.26 38.2176 1105.9 25.2824 1086.81 29.6921C1069.44 33.8079 1050.35 54.9745 1032.99 52.9167C1013.89 50.8588 996.528 25.2824 977.431 21.1667C960.069 17.0509 942.708 33.8079 923.611 44.3912C906.25 54.9745 887.153 59.3843 869.792 57.0324C850.694 54.9745 833.333 46.4491 815.972 54.9745C796.875 63.5 779.514 88.7824 760.417 91.1343C743.056 93.1921 723.958 72.0255 706.597 63.5C689.236 54.9745 670.139 59.3843 652.778 59.3843C633.681 59.3843 616.319 54.9745 597.222 46.4491C579.861 38.2176 560.764 25.2824 543.403 29.6921C526.042 33.8079 506.944 54.9745 489.583 61.4421C470.486 67.6157 453.125 59.3843 434.028 59.3843C416.667 59.3843 399.305 67.6157 380.208 78.1991C362.847 88.7824 343.75 101.718 326.389 107.891C307.292 114.359 289.93 114.359 272.569 97.3079C253.472 80.5509 236.111 46.4491 217.014 46.4491C199.653 46.4491 180.555 80.5509 163.194 95.25C144.097 109.949 126.736 105.833 109.375 93.1921C90.2776 80.5509 72.9165 59.3843 53.8193 42.3333C36.4583 25.2824 17.3611 12.6412 8.68042 6.46759L0 0V127H8.68042C17.3611 127 36.4583 127 53.8193 127C72.9165 127 90.2776 127 109.375 127C126.736 127 144.097 127 163.194 127C180.555 127 199.653 127 217.014 127C236.111 127 253.472 127 272.569 127C289.93 127 307.292 127 326.389 127C343.75 127 362.847 127 380.208 127C399.305 127 416.667 127 434.028 127C453.125 127 470.486 127 489.583 127C506.944 127 526.042 127 543.403 127C560.764 127 579.861 127 597.222 127C616.319 127 633.681 127 652.778 127C670.139 127 689.236 127 706.597 127C723.958 127 743.056 127 760.417 127C779.514 127 796.875 127 815.972 127C833.333 127 850.694 127 869.792 127C887.153 127 906.25 127 923.611 127C942.708 127 960.069 127 977.431 127C996.528 127 1013.89 127 1032.99 127C1050.35 127 1069.44 127 1086.81 127C1105.9 127 1123.26 127 1140.62 127C1159.72 127 1177.08 127 1196.18 127C1213.54 127 1232.64 127 1250 127C1267.36 127 1286.46 127 1303.82 127C1322.92 127 1340.28 127 1359.38 127C1376.74 127 1394.1 127 1413.19 127C1430.56 127 1449.65 127 1467.01 127C1486.11 127 1503.47 127 1522.57 127C1539.93 127 1557.29 127 1576.39 127C1593.75 127 1612.85 127 1630.21 127C1649.31 127 1666.67 127 1684.03 127C1703.12 127 1720.49 127 1739.58 127C1756.94 127 1776.04 127 1793.4 127C1810.76 127 1829.86 127 1847.22 127C1866.32 127 1883.68 127 1902.78 127C1920.14 127 1939.24 127 1956.6 127C1973.96 127 1993.06 127 2010.42 127C2029.51 127 2046.88 127 2065.97 127C2083.33 127 2100.69 127 2119.79 127C2137.15 127 2156.25 127 2173.61 127C2192.71 127 2210.07 127 2227.43 127C2246.53 127 2263.89 127 2282.99 127C2300.35 127 2319.44 127 2336.81 127C2355.9 127 2373.26 127 2390.62 127C2409.72 127 2427.08 127 2446.18 127C2463.54 127 2482.64 127 2491.32 127H2500V101.718Z" fill="#1A1A1C"/>
</svg>
