<svg width="4300" height="244" viewBox="0 0 4300 244" fill="none" xmlns="http://www.w3.org/2000/svg">
<path fill-rule="evenodd" clip-rule="evenodd" d="M0 195.426L14.9306 175.093C29.8611 154.759 62.7083 114.093 92.5694 97.713C125.417 81.3333 155.278 89.2407 188.125 93.7593C217.986 97.713 247.847 97.713 280.694 81.3333C310.556 64.9537 343.403 32.7593 373.264 40.6667C406.111 48.5741 435.972 97.713 468.819 129.907C498.681 162.667 528.542 179.046 561.389 162.667C591.25 146.287 624.097 97.713 653.958 77.3796C686.806 57.0463 716.667 64.9537 746.528 89.2407C779.375 114.093 809.236 154.759 842.083 146.287C871.944 138.38 904.792 81.3333 934.653 73.4259C964.514 64.9537 997.361 105.62 1027.22 122C1060.07 138.38 1089.93 129.907 1122.78 122C1152.64 114.093 1185.49 105.62 1215.35 114.093C1245.21 122 1278.06 146.287 1307.92 154.759C1340.76 162.667 1370.62 154.759 1403.47 146.287C1433.33 138.38 1463.19 129.907 1496.04 125.954C1525.9 122 1558.75 122 1588.61 114.093C1621.46 105.62 1651.32 89.2407 1681.18 97.713C1714.03 105.62 1743.89 138.38 1776.74 146.287C1806.6 154.759 1839.44 138.38 1869.31 125.954C1902.15 114.093 1932.01 105.62 1961.88 114.093C1994.72 122 2024.58 146.287 2057.43 146.287C2087.29 146.287 2120.14 122 2150 118.046C2179.86 114.093 2212.71 129.907 2242.57 129.907C2275.42 129.907 2305.28 114.093 2338.12 93.7593C2367.99 73.4259 2397.85 48.5741 2430.69 57.0463C2460.56 64.9537 2493.4 105.62 2523.26 101.667C2556.11 97.713 2585.97 48.5741 2618.82 40.6667C2648.68 32.7593 2678.54 64.9537 2711.39 85.287C2741.25 105.62 2774.1 114.093 2803.96 109.574C2836.81 105.62 2866.67 89.2407 2896.53 105.62C2929.38 122 2959.24 170.574 2992.08 175.093C3021.94 179.046 3054.79 138.38 3084.65 122C3114.51 105.62 3147.36 114.093 3177.22 114.093C3210.07 114.093 3239.93 105.62 3272.78 89.2407C3302.64 73.4259 3335.49 48.5741 3365.35 57.0463C3395.21 64.9537 3428.06 105.62 3457.92 118.046C3490.76 129.907 3520.62 114.093 3553.47 114.093C3583.33 114.093 3613.19 129.907 3646.04 150.241C3675.9 170.574 3708.75 195.426 3738.61 207.287C3771.46 219.713 3801.32 219.713 3831.18 186.954C3864.03 154.759 3893.89 89.2407 3926.74 89.2407C3956.6 89.2407 3989.44 154.759 4019.31 183C4052.15 211.241 4082.01 203.333 4111.88 179.046C4144.72 154.759 4174.58 114.093 4207.43 81.3333C4237.29 48.5741 4270.14 24.287 4285.07 12.4259L4300 0V244H4285.07C4270.14 244 4237.29 244 4207.43 244C4174.58 244 4144.72 244 4111.88 244C4082.01 244 4052.15 244 4019.31 244C3989.44 244 3956.6 244 3926.74 244C3893.89 244 3864.03 244 3831.18 244C3801.32 244 3771.46 244 3738.61 244C3708.75 244 3675.9 244 3646.04 244C3613.19 244 3583.33 244 3553.47 244C3520.62 244 3490.76 244 3457.92 244C3428.06 244 3395.21 244 3365.35 244C3335.49 244 3302.64 244 3272.78 244C3239.93 244 3210.07 244 3177.22 244C3147.36 244 3114.51 244 3084.65 244C3054.79 244 3021.94 244 2992.08 244C2959.24 244 2929.38 244 2896.53 244C2866.67 244 2836.81 244 2803.96 244C2774.1 244 2741.25 244 2711.39 244C2678.54 244 2648.68 244 2618.82 244C2585.97 244 2556.11 244 2523.26 244C2493.4 244 2460.56 244 2430.69 244C2397.85 244 2367.99 244 2338.12 244C2305.28 244 2275.42 244 2242.57 244C2212.71 244 2179.86 244 2150 244C2120.14 244 2087.29 244 2057.43 244C2024.58 244 1994.72 244 1961.88 244C1932.01 244 1902.15 244 1869.31 244C1839.44 244 1806.6 244 1776.74 244C1743.89 244 1714.03 244 1681.18 244C1651.32 244 1621.46 244 1588.61 244C1558.75 244 1525.9 244 1496.04 244C1463.19 244 1433.33 244 1403.47 244C1370.62 244 1340.76 244 1307.92 244C1278.06 244 1245.21 244 1215.35 244C1185.49 244 1152.64 244 1122.78 244C1089.93 244 1060.07 244 1027.22 244C997.361 244 964.514 244 934.653 244C904.792 244 871.944 244 842.083 244C809.236 244 779.375 244 746.528 244C716.667 244 686.806 244 653.958 244C624.097 244 591.25 244 561.389 244C528.542 244 498.681 244 468.819 244C435.972 244 406.111 244 373.264 244C343.403 244 310.556 244 280.694 244C247.847 244 217.986 244 188.125 244C155.278 244 125.417 244 92.5694 244C62.7083 244 29.8611 244 14.9306 244H0L0 195.426Z" fill="white"/>
</svg>
