<svg width="2500" height="127" viewBox="0 0 2500 127" fill="none" xmlns="http://www.w3.org/2000/svg">
<path fill-rule="evenodd" clip-rule="evenodd" d="M0 101.718L8.68056 91.1343C17.3611 80.5509 36.4583 59.3843 53.8194 50.8588C72.9167 42.3333 90.2778 46.4491 109.375 48.8009C126.736 50.8588 144.097 50.8588 163.194 42.3333C180.556 33.8079 199.653 17.0509 217.014 21.1667C236.111 25.2824 253.472 50.8588 272.569 67.6157C289.931 84.6667 307.292 93.1921 326.389 84.6667C343.75 76.1412 362.847 50.8588 380.208 40.2755C399.306 29.6921 416.667 33.8079 434.028 46.4491C453.125 59.3843 470.486 80.5509 489.583 76.1412C506.944 72.0255 526.042 42.3333 543.403 38.2176C560.764 33.8079 579.861 54.9745 597.222 63.5C616.319 72.0255 633.681 67.6157 652.778 63.5C670.139 59.3843 689.236 54.9745 706.597 59.3843C723.958 63.5 743.056 76.1412 760.417 80.5509C779.514 84.6667 796.875 80.5509 815.972 76.1412C833.333 72.0255 850.694 67.6157 869.792 65.5579C887.153 63.5 906.25 63.5 923.611 59.3843C942.708 54.9745 960.069 46.4491 977.431 50.8588C996.528 54.9745 1013.89 72.0255 1032.99 76.1412C1050.35 80.5509 1069.44 72.0255 1086.81 65.5579C1105.9 59.3843 1123.26 54.9745 1140.62 59.3843C1159.72 63.5 1177.08 76.1412 1196.18 76.1412C1213.54 76.1412 1232.64 63.5 1250 61.4421C1267.36 59.3843 1286.46 67.6157 1303.82 67.6157C1322.92 67.6157 1340.28 59.3843 1359.38 48.8009C1376.74 38.2176 1394.1 25.2824 1413.19 29.6921C1430.56 33.8079 1449.65 54.9745 1467.01 52.9167C1486.11 50.8588 1503.47 25.2824 1522.57 21.1667C1539.93 17.0509 1557.29 33.8079 1576.39 44.3912C1593.75 54.9745 1612.85 59.3843 1630.21 57.0324C1649.31 54.9745 1666.67 46.4491 1684.03 54.9745C1703.12 63.5 1720.49 88.7824 1739.58 91.1343C1756.94 93.1921 1776.04 72.0255 1793.4 63.5C1810.76 54.9745 1829.86 59.3843 1847.22 59.3843C1866.32 59.3843 1883.68 54.9745 1902.78 46.4491C1920.14 38.2176 1939.24 25.2824 1956.6 29.6921C1973.96 33.8079 1993.06 54.9745 2010.42 61.4421C2029.51 67.6157 2046.88 59.3843 2065.97 59.3843C2083.33 59.3843 2100.69 67.6157 2119.79 78.1991C2137.15 88.7824 2156.25 101.718 2173.61 107.891C2192.71 114.359 2210.07 114.359 2227.43 97.3079C2246.53 80.5509 2263.89 46.4491 2282.99 46.4491C2300.35 46.4491 2319.44 80.5509 2336.81 95.25C2355.9 109.949 2373.26 105.833 2390.62 93.1921C2409.72 80.5509 2427.08 59.3843 2446.18 42.3333C2463.54 25.2824 2482.64 12.6412 2491.32 6.46759L2500 0V127H2491.32C2482.64 127 2463.54 127 2446.18 127C2427.08 127 2409.72 127 2390.62 127C2373.26 127 2355.9 127 2336.81 127C2319.44 127 2300.35 127 2282.99 127C2263.89 127 2246.53 127 2227.43 127C2210.07 127 2192.71 127 2173.61 127C2156.25 127 2137.15 127 2119.79 127C2100.69 127 2083.33 127 2065.97 127C2046.88 127 2029.51 127 2010.42 127C1993.06 127 1973.96 127 1956.6 127C1939.24 127 1920.14 127 1902.78 127C1883.68 127 1866.32 127 1847.22 127C1829.86 127 1810.76 127 1793.4 127C1776.04 127 1756.94 127 1739.58 127C1720.49 127 1703.12 127 1684.03 127C1666.67 127 1649.31 127 1630.21 127C1612.85 127 1593.75 127 1576.39 127C1557.29 127 1539.93 127 1522.57 127C1503.47 127 1486.11 127 1467.01 127C1449.65 127 1430.56 127 1413.19 127C1394.1 127 1376.74 127 1359.38 127C1340.28 127 1322.92 127 1303.82 127C1286.46 127 1267.36 127 1250 127C1232.64 127 1213.54 127 1196.18 127C1177.08 127 1159.72 127 1140.62 127C1123.26 127 1105.9 127 1086.81 127C1069.44 127 1050.35 127 1032.99 127C1013.89 127 996.528 127 977.431 127C960.069 127 942.708 127 923.611 127C906.25 127 887.153 127 869.792 127C850.694 127 833.333 127 815.972 127C796.875 127 779.514 127 760.417 127C743.056 127 723.958 127 706.597 127C689.236 127 670.139 127 652.778 127C633.681 127 616.319 127 597.222 127C579.861 127 560.764 127 543.403 127C526.042 127 506.944 127 489.583 127C470.486 127 453.125 127 434.028 127C416.667 127 399.306 127 380.208 127C362.847 127 343.75 127 326.389 127C307.292 127 289.931 127 272.569 127C253.472 127 236.111 127 217.014 127C199.653 127 180.556 127 163.194 127C144.097 127 126.736 127 109.375 127C90.2778 127 72.9167 127 53.8194 127C36.4583 127 17.3611 127 8.68056 127H0L0 101.718Z" fill="white"/>
</svg>
