<svg width="4300" height="245" viewBox="0 0 4300 245" fill="none" xmlns="http://www.w3.org/2000/svg">
<path fill-rule="evenodd" clip-rule="evenodd" d="M4300 195.801L4285.07 175.429C4270.14 155.056 4237.29 114.312 4207.43 97.9005C4174.58 81.4894 4144.72 89.412 4111.88 93.9392C4082.01 97.9005 4052.15 97.9005 4019.31 81.4894C3989.44 65.0783 3956.6 32.8221 3926.74 40.7447C3893.89 48.6673 3864.03 97.9005 3831.18 130.157C3801.32 162.979 3771.46 179.39 3738.61 162.979C3708.75 146.568 3675.9 97.9005 3646.04 77.5281C3613.19 57.1558 3583.33 65.0783 3553.47 89.412C3520.62 114.312 3490.76 155.056 3457.92 146.568C3428.06 138.645 3395.21 81.4894 3365.35 73.5668C3335.49 65.0783 3302.64 105.823 3272.78 122.234C3239.93 138.645 3210.07 130.157 3177.22 122.234C3147.36 114.312 3114.51 105.823 3084.65 114.312C3054.79 122.234 3021.94 146.568 2992.08 155.056C2959.24 162.979 2929.38 155.056 2896.53 146.568C2866.67 138.645 2836.81 130.157 2803.96 126.195C2774.1 122.234 2741.25 122.234 2711.39 114.312C2678.54 105.823 2648.68 89.412 2618.82 97.9005C2585.97 105.823 2556.11 138.645 2523.26 146.568C2493.4 155.056 2460.56 138.645 2430.69 126.195C2397.85 114.312 2367.99 105.823 2338.12 114.312C2305.28 122.234 2275.42 146.568 2242.57 146.568C2212.71 146.568 2179.86 122.234 2150 118.273C2120.14 114.312 2087.29 130.157 2057.43 130.157C2024.58 130.157 1994.72 114.312 1961.88 93.9392C1932.01 73.5668 1902.15 48.6673 1869.31 57.1558C1839.44 65.0783 1806.6 105.823 1776.74 101.862C1743.89 97.9005 1714.03 48.6673 1681.18 40.7447C1651.32 32.8221 1621.46 65.0783 1588.61 85.4507C1558.75 105.823 1525.9 114.312 1496.04 109.784C1463.19 105.823 1433.33 89.412 1403.47 105.823C1370.62 122.234 1340.76 170.901 1307.92 175.429C1278.06 179.39 1245.21 138.645 1215.35 122.234C1185.49 105.823 1152.64 114.312 1122.78 114.312C1089.93 114.312 1060.07 105.823 1027.22 89.412C997.361 73.5668 964.514 48.6673 934.653 57.1558C904.792 65.0783 871.944 105.823 842.083 118.273C809.236 130.157 779.375 114.312 746.528 114.312C716.667 114.312 686.805 130.157 653.958 150.529C624.097 170.901 591.25 195.801 561.389 207.685C528.542 220.135 498.68 220.135 468.819 187.312C435.972 155.056 406.111 89.412 373.264 89.412C343.403 89.412 310.555 155.056 280.694 183.351C247.847 211.646 217.986 203.724 188.125 179.39C155.278 155.056 125.417 114.312 92.5693 81.4894C62.7085 48.6673 29.8608 24.3336 14.9307 12.4498L0 0V244.468H14.9307C29.8608 244.468 62.7085 244.468 92.5693 244.468C125.417 244.468 155.278 244.468 188.125 244.468C217.986 244.468 247.847 244.468 280.694 244.468C310.555 244.468 343.403 244.468 373.264 244.468C406.111 244.468 435.972 244.468 468.819 244.468C498.68 244.468 528.542 244.468 561.389 244.468C591.25 244.468 624.097 244.468 653.958 244.468C686.805 244.468 716.667 244.468 746.528 244.468C779.375 244.468 809.236 244.468 842.083 244.468C871.944 244.468 904.792 244.468 934.653 244.468C964.514 244.468 997.361 244.468 1027.22 244.468C1060.07 244.468 1089.93 244.468 1122.78 244.468C1152.64 244.468 1185.49 244.468 1215.35 244.468C1245.21 244.468 1278.06 244.468 1307.92 244.468C1340.76 244.468 1370.62 244.468 1403.47 244.468C1433.33 244.468 1463.19 244.468 1496.04 244.468C1525.9 244.468 1558.75 244.468 1588.61 244.468C1621.46 244.468 1651.32 244.468 1681.18 244.468C1714.03 244.468 1743.89 244.468 1776.74 244.468C1806.6 244.468 1839.44 244.468 1869.31 244.468C1902.15 244.468 1932.01 244.468 1961.88 244.468C1994.72 244.468 2024.58 244.468 2057.43 244.468C2087.29 244.468 2120.14 244.468 2150 244.468C2179.86 244.468 2212.71 244.468 2242.57 244.468C2275.42 244.468 2305.28 244.468 2338.12 244.468C2367.99 244.468 2397.85 244.468 2430.69 244.468C2460.56 244.468 2493.4 244.468 2523.26 244.468C2556.11 244.468 2585.97 244.468 2618.82 244.468C2648.68 244.468 2678.54 244.468 2711.39 244.468C2741.25 244.468 2774.1 244.468 2803.96 244.468C2836.81 244.468 2866.67 244.468 2896.53 244.468C2929.38 244.468 2959.24 244.468 2992.08 244.468C3021.94 244.468 3054.79 244.468 3084.65 244.468C3114.51 244.468 3147.36 244.468 3177.22 244.468C3210.07 244.468 3239.93 244.468 3272.78 244.468C3302.64 244.468 3335.49 244.468 3365.35 244.468C3395.21 244.468 3428.06 244.468 3457.92 244.468C3490.76 244.468 3520.62 244.468 3553.47 244.468C3583.33 244.468 3613.19 244.468 3646.04 244.468C3675.9 244.468 3708.75 244.468 3738.61 244.468C3771.46 244.468 3801.32 244.468 3831.18 244.468C3864.03 244.468 3893.89 244.468 3926.74 244.468C3956.6 244.468 3989.44 244.468 4019.31 244.468C4052.15 244.468 4082.01 244.468 4111.88 244.468C4144.72 244.468 4174.58 244.468 4207.43 244.468C4237.29 244.468 4270.14 244.468 4285.07 244.468H4300V195.801Z" fill="#1A1A1C"/>
</svg>
